<?xml version="1.0" encoding="UTF-8"?>
<svg version="1.1" xmlns="http://www.w3.org/2000/svg" width="1024" height="1024">
<path d="M0 0 C337.92 0 675.84 0 1024 0 C1024 337.92 1024 675.84 1024 1024 C686.08 1024 348.16 1024 0 1024 C0 686.08 0 348.16 0 0 Z " fill="#FEE020" transform="translate(0,0)"/>
<path d="M0 0 C4.29765361 3.29819928 6.37779649 6.86302221 8 12 C8 15.70560597 7.66612207 17.28946979 5.125 20 C2.37948717 21.75712821 -0.35233132 23.20619878 -3.25 24.6875 C-16.39025459 31.79558403 -24.7358314 44.8749415 -29 59 C-29 59.99 -29 60.98 -29 62 C-28.15179687 61.60167969 -27.30359375 61.20335937 -26.4296875 60.79296875 C-8.27618075 52.59396735 8.97704008 50.5699588 28 57 C45.99856325 64.76031969 57.47133915 77.02651347 65 95 C69.37827138 106.66247509 69.68287351 117.7057662 69 130 C68.94199219 131.05405029 68.94199219 131.05405029 68.8828125 132.12939453 C66.46453915 168.53685542 45.2042315 208.18062679 18 232 C9.98977632 237.76152659 1.69658637 241.59691816 -8.25 241.625 C-9.0143335 241.63023682 -9.77866699 241.63547363 -10.56616211 241.64086914 C-17.90959395 241.43814319 -24.28641179 239.24464617 -31.01074219 236.40283203 C-40.06405637 232.69750654 -46.68404744 234.6554356 -55.5 238.0625 C-65.84581424 241.75774364 -76.7531408 243.21932609 -87.375 239.5 C-115.21176333 226.05503268 -133.55786813 193.0221592 -143.6875 165 C-151.55265349 139.79940618 -155.64168803 112.8061857 -144.5703125 87.9453125 C-135.47330096 70.88275852 -121.62379909 60.85718471 -103.61328125 54.98046875 C-84.94904982 49.91590433 -68.40052435 55.53599755 -51.05078125 62.22705078 C-48.39199408 63.22916033 -45.70423542 64.12892417 -43 65 C-43.04640625 64.23558594 -43.0928125 63.47117187 -43.140625 62.68359375 C-43.7398781 44.89861785 -37.15180377 27.11582995 -25 14 C-8.90301221 -2.27751475 -8.90301221 -2.27751475 0 0 Z " fill="#090807" transform="translate(673,273)"/>
<path d="M0 0 C5.92153525 1.77855299 11.01567196 5.51668446 14 11 C15.94186799 17.64587579 13.80884623 22.06428829 11.0625 28.0625 C10.44387085 29.45359985 10.44387085 29.45359985 9.81274414 30.87280273 C0.25756731 51.98869955 -13.21951163 71.89296987 -29.01171875 88.86328125 C-30.77839109 90.76184661 -32.45490623 92.7045279 -34.125 94.6875 C-43.17069285 105.03745554 -53.11904668 114.6083583 -64 123 C-65.45212891 124.16015625 -65.45212891 124.16015625 -66.93359375 125.34375 C-124.14299428 170.48275266 -198.57317219 193.38574294 -271.375 184.875 C-322.7574453 178.16004077 -376.31008418 159.78219737 -415 124 C-420.22368125 128.35645531 -425.05233196 132.95760225 -429.8125 137.8125 C-431.12918543 139.15462862 -432.4480881 140.49458677 -433.76953125 141.83203125 C-434.34292236 142.41702393 -434.91631348 143.0020166 -435.50708008 143.60473633 C-437.87528867 145.81803348 -439.0565672 146.0052377 -442.375 146.3125 C-446 146 -446 146 -448.13989258 144.28881836 C-450.18441142 141.77308609 -450.75604164 140.21979181 -451.38671875 137.06640625 C-451.59852783 136.04611328 -451.81033691 135.02582031 -452.02856445 133.97460938 C-452.24601318 132.84861328 -452.46346191 131.72261719 -452.6875 130.5625 C-452.92879639 129.37849609 -453.17009277 128.19449219 -453.41870117 126.97460938 C-453.97099848 124.25005613 -454.51691639 121.52494929 -455.05371094 118.79736328 C-456.13804486 113.28768427 -457.24537069 107.78266869 -458.3515625 102.27734375 C-459.57891628 96.16462688 -460.80366713 90.05143592 -462.01635742 83.93579102 C-462.20648407 82.97794205 -462.39661072 82.02009308 -462.59249878 81.03321838 C-462.95176289 79.22189292 -463.31022399 77.41040795 -463.66775513 75.59873962 C-463.82871674 74.7875618 -463.98967834 73.97638397 -464.15551758 73.140625 C-464.29508377 72.43454102 -464.43464996 71.72845703 -464.57844543 71.00097656 C-464.8638373 69.64631814 -465.18465023 68.29872463 -465.53715515 66.95996094 C-466.46013735 63.05150421 -466.76271601 59.37598505 -464.78515625 55.80834961 C-463 54 -463 54 -460.79296875 53.50610352 C-452.93281006 53.68802435 -445.63763786 55.1346888 -438 56.9375 C-435.19269508 57.58252 -432.38347903 58.21902624 -429.57421875 58.85546875 C-428.82887375 59.02543365 -428.08352875 59.19539856 -427.31559753 59.37051392 C-421.06693776 60.78564497 -414.79782954 62.08680701 -408.51953125 63.36328125 C-407.54821259 63.56175156 -406.57689392 63.76022186 -405.57614136 63.96470642 C-401.69502318 64.75744159 -397.81395933 65.54995619 -393.92944336 66.32589722 C-391.20768975 66.87032447 -388.48851248 67.42629167 -385.76953125 67.984375 C-384.95627884 68.14355911 -384.14302643 68.30274323 -383.30513 68.4667511 C-379.02033787 69.35722425 -375.58174736 70.33463473 -372 73 C-370.49110531 76.01778937 -370.49973724 77.62322637 -371 81 C-375.34968614 87.66484167 -382.04869831 92.82703757 -388 98 C-384.5611407 101.79156281 -380.65435372 104.39092787 -376.375 107.125 C-375.62645752 107.60437012 -374.87791504 108.08374023 -374.10668945 108.57763672 C-341.84548695 129.00581304 -306.88967689 141.92991475 -269 147 C-268.2891626 147.09571289 -267.5783252 147.19142578 -266.84594727 147.29003906 C-258.69419682 148.24634659 -250.50878781 148.24355603 -242.3125 148.25 C-241.15107483 148.25101212 -241.15107483 148.25101212 -239.96618652 148.25204468 C-226.77999552 148.23387299 -213.98604635 147.4329719 -201 145 C-200.0527002 144.82307617 -199.10540039 144.64615234 -198.12939453 144.46386719 C-158.94761585 136.92314927 -122.65361895 121.41796058 -91 97 C-90.09765625 96.31164062 -89.1953125 95.62328125 -88.265625 94.9140625 C-73.41856415 83.32957235 -59.52880664 69.88896133 -48 55 C-47.55188965 54.43361816 -47.1037793 53.86723633 -46.64208984 53.28369141 C-37.09127058 41.19245118 -29.08118227 28.29762084 -21.6796875 14.79296875 C-21.3280957 14.15697754 -20.97650391 13.52098633 -20.61425781 12.86572266 C-19.70064875 11.20039281 -18.80645223 9.52445248 -17.9140625 7.84765625 C-13.18898658 0.81790044 -8.34552671 -1.36938983 0 0 Z " fill="#090908" transform="translate(754,484)"/>
<path d="M0 0 C1.18464844 0.24137695 2.36929687 0.48275391 3.58984375 0.73144531 C46.19532616 9.69212217 84.79001124 27.0734282 119 54 C124.514352 49.46597724 129.39878251 44.51451692 134.25390625 39.29296875 C137.3184469 36.73409911 139.05897291 36.1981522 143 36 C146.10867193 36.79937278 146.83454655 37.7221014 148.48291016 40.49072266 C150.34632613 44.80110909 151.21825373 48.98756985 152.0859375 53.5859375 C152.26819382 54.51237061 152.45045013 55.43880371 152.63822937 56.39331055 C153.22525237 59.38569113 153.80029277 62.38023209 154.375 65.375 C154.97327491 68.44637837 155.57423341 71.51722367 156.17536926 74.58804321 C156.57011603 76.60572342 156.96383061 78.62360586 157.35649109 80.64169312 C159.0179937 89.16387255 160.78527992 97.66037555 162.67919922 106.13427734 C163.69428045 110.83028205 164.35978268 115.16154321 164 120 C162.14539332 122.61018718 160.87803107 123.72737572 157.82102966 124.67655945 C154.23424416 125.08779649 151.05226113 124.50501796 147.55102539 123.80004883 C146.81866165 123.66031647 146.08629791 123.52058411 145.33174133 123.37661743 C142.91836172 122.91323124 140.50803048 122.43578702 138.09765625 121.95703125 C136.41532398 121.62843736 134.73290373 121.30029363 133.05039978 120.97257996 C129.52618853 120.28367728 126.00351318 119.58747646 122.48168945 118.88647461 C117.97788313 117.99089422 113.47028825 117.11633731 108.961236 116.24760914 C105.48570551 115.57507919 102.01274944 114.88994226 98.54040337 114.2011776 C96.8799202 113.87365634 95.2185991 113.55035302 93.55644417 113.23142433 C91.22762571 112.78290547 88.9028943 112.31711916 86.57836914 111.84692383 C85.55652527 111.6557473 85.55652527 111.6557473 84.51403809 111.46070862 C79.93387035 110.50851595 76.64969651 108.92113644 73 106 C71.6875 102.75 71.6875 102.75 72 99 C76.40031748 91.58232196 84.60502229 85.71242673 91 80 C79.4058846 66.74501958 58.77962897 58.93916147 43 52 C42.31228516 51.69513672 41.62457031 51.39027344 40.91601562 51.07617188 C10.55661147 37.91091302 -22.55290979 33.67880549 -55.3125 33.5625 C-56.31545105 33.55605469 -57.3184021 33.54960937 -58.35174561 33.54296875 C-77.33814131 33.46834922 -96.17740259 35.04421151 -114.625 39.75 C-116.1723584 40.13514771 -116.1723584 40.13514771 -117.75097656 40.52807617 C-157.55483919 50.69304109 -192.38602158 69.24456236 -222.72265625 96.9453125 C-224.6737616 98.70565798 -226.66013544 100.39184323 -228.6875 102.0625 C-231.74763084 104.67636176 -234.36038996 107.51917925 -236.953125 110.59375 C-238.44966585 112.3530423 -239.98701635 114.07784608 -241.546875 115.78125 C-255.40372303 131.06411462 -266.29291427 148.75619633 -275.66381836 167.06982422 C-282.84096214 180.94698738 -282.84096214 180.94698738 -289 183 C-297.24475296 184.00989946 -303.38538366 181.63565775 -310 176.8125 C-312.76321981 172.92672214 -313.25933567 169.74106319 -313 165 C-311.81116573 160.97701111 -310.04487618 157.31630721 -308.1875 153.5625 C-307.68484619 152.5113501 -307.18219238 151.4602002 -306.66430664 150.37719727 C-290.64781995 117.28048171 -268.81524536 85.29179349 -239.7890625 62.234375 C-237.92170712 60.73839842 -236.08276354 59.20628822 -234.2734375 57.640625 C-197.75598222 26.05252319 -150.1629835 7.18061857 -103 -1 C-102.01902344 -1.17644043 -101.03804687 -1.35288086 -100.02734375 -1.53466797 C-67.92152169 -7.04398335 -31.89028856 -6.55190278 0 0 Z " fill="#090908" transform="translate(567,129)"/>
<path d="M0 0 C0.8240181 -0.00570007 1.64803619 -0.01140015 2.49702454 -0.01727295 C4.24466669 -0.02672954 5.99232673 -0.03325954 7.73999023 -0.03710938 C10.39794699 -0.04677379 13.0551168 -0.07777304 15.71289062 -0.109375 C17.41275584 -0.11590936 19.11262657 -0.12115813 20.8125 -0.125 C21.99570076 -0.1435202 21.99570076 -0.1435202 23.20280457 -0.16241455 C28.33787042 -0.14197047 32.19477133 0.56354555 36.73828125 3.203125 C40.49232866 7.74380997 41.31624018 11.3621972 41.23948669 17.09741211 C41.24778829 18.26256426 41.24778829 18.26256426 41.25625759 19.45125484 C41.26983151 22.04465518 41.25491312 24.63708766 41.23999023 27.23046875 C41.2437746 29.09352018 41.24927562 30.9565688 41.25636292 32.8196106 C41.27031938 37.87333576 41.25914632 42.92672054 41.2426517 47.98042679 C41.22879617 53.27072667 41.23526186 58.56100688 41.23878479 63.85131836 C41.24148651 72.73524457 41.22801455 81.61903564 41.20483398 90.50292969 C41.17822453 100.77198034 41.17647732 111.04080504 41.18822235 121.30987835 C41.19900391 131.19091875 41.19281007 141.07187746 41.17866707 150.95291138 C41.17291057 155.15693087 41.17298732 159.36089052 41.17773247 163.56491089 C41.18250699 168.51602698 41.17238077 173.46689586 41.15077782 178.41796494 C41.14521627 180.23440594 41.14473885 182.05087073 41.14973068 183.86731339 C41.15569292 186.3480953 41.14316075 188.8281238 41.1259613 191.30883789 C41.13197135 192.0265483 41.13798139 192.74425871 41.14417356 193.48371792 C41.08584287 198.11489809 40.17019079 201.26753818 37.73828125 205.203125 C32.88102302 209.54928367 28.81951027 209.79527385 22.61328125 209.734375 C21.31559814 209.74011536 21.31559814 209.74011536 19.99169922 209.74597168 C18.16958446 209.74868365 16.34743029 209.74137266 14.52539062 209.72460938 C11.74650756 209.70318841 8.97020952 209.72443422 6.19140625 209.75 C4.41535891 209.7473566 2.63931318 209.74223135 0.86328125 209.734375 C0.03812012 209.74247192 -0.78704102 209.75056885 -1.63720703 209.75891113 C-6.97034522 209.67281291 -10.0295373 208.73644392 -14.26171875 205.203125 C-18.12528005 199.87407492 -18.41006773 195.16426593 -18.40216064 188.73916626 C-18.40513177 187.98452477 -18.40810289 187.22988328 -18.41116405 186.45237386 C-18.41983984 183.92217682 -18.42135834 181.39202715 -18.42285156 178.86181641 C-18.42748046 177.04832356 -18.43250522 175.23483168 -18.43789673 173.42134094 C-18.45101428 168.49364652 -18.45746423 163.56596571 -18.46190739 158.63825655 C-18.46483866 155.5600278 -18.46894354 152.48180277 -18.47341156 149.4035759 C-18.48708372 139.77350813 -18.49675221 130.14344887 -18.50061345 120.51337206 C-18.50509608 109.39461896 -18.52265466 98.27598868 -18.55161405 87.15727293 C-18.5732207 78.5635365 -18.58331716 69.96983465 -18.58465457 61.37607133 C-18.58570317 56.24282954 -18.59162282 51.10970324 -18.60947418 45.97649002 C-18.62593765 41.14855338 -18.62811875 36.32081929 -18.61933517 31.49286461 C-18.61856392 29.72156291 -18.62291912 27.9502504 -18.63279343 26.17897606 C-18.6454901 23.75942609 -18.63964889 21.34059601 -18.62921143 18.92105103 C-18.63726783 18.22143112 -18.64532423 17.52181121 -18.65362477 16.8009907 C-18.60739056 12.21318817 -17.66056793 9.10379041 -15.26171875 5.203125 C-10.10109513 0.54597685 -6.77898992 0.03606096 0 0 Z " fill="#0A0908" transform="translate(333.26171875,302.796875)"/>
<path d="M0 0 C7.46790586 5.48103182 12.90635093 12.11357558 15.125 21.25 C15.1848094 23.58256667 15.19636603 25.9177583 15.125 28.25 C11.39689132 28.48292281 7.67065008 28.62459124 3.9375 28.75 C2.35485352 28.85054687 2.35485352 28.85054687 0.74023438 28.953125 C-2.32219432 29.03041027 -4.9032848 29.00684451 -7.875 28.25 C-9.76613675 26.35431725 -10.75861117 24.65934398 -11.8425293 22.22045898 C-14.02899453 18.04761412 -18.59162669 16.6777911 -22.875 15.25 C-25.49364161 15.1015056 -28.0682477 15.0189973 -30.6875 15 C-31.73647461 14.9690625 -31.73647461 14.9690625 -32.80664062 14.9375 C-38.43322681 14.89539271 -42.11755087 16.34831094 -46.6875 19.5 C-48.63240934 22.36618219 -48.75900095 24.828028 -48.875 28.25 C-46.40875383 34.81531738 -42.43185047 36.67481233 -36.3671875 39.45703125 C-29.2139676 42.45639833 -21.69689325 44.45036118 -14.265625 46.6328125 C-2.47087373 50.12077035 9.17002062 54.56735037 16.12890625 65.37890625 C20.62123174 73.81743139 21.40824308 82.1555987 18.9375 91.375 C15.6025273 101.24096091 9.52362557 108.51693207 0.3125 113.5 C-15.0748364 120.54371195 -32.81982603 121.18334879 -48.875 116.25 C-61.36965139 111.4679354 -68.65303172 105.39685753 -74.7109375 93.5078125 C-75.875 90.25 -75.875 90.25 -76.875 81.25 C-68.625 81.25 -60.375 81.25 -51.875 81.25 C-49.4 86.2 -49.4 86.2 -46.875 91.25 C-44.48721234 93.36576453 -44.48721234 93.36576453 -41.8125 94.3125 C-40.97589844 94.67472656 -40.13929688 95.03695312 -39.27734375 95.41015625 C-29.98431606 98.65893829 -20.90938378 97.95198741 -11.875 94.25 C-10.885 93.92 -9.895 93.59 -8.875 93.25 C-6.65647921 89.28001543 -6.4748068 85.73216387 -6.875 81.25 C-8.8803147 75.9860489 -13.10863437 73.7970422 -17.875 71.25 C-21.17377091 69.8927179 -24.53299946 68.80965823 -27.9375 67.75 C-28.85635986 67.45230713 -29.77521973 67.15461426 -30.72192383 66.84790039 C-34.88080603 65.50219846 -39.05083443 64.19464439 -43.2265625 62.90234375 C-55.50180791 59.05337777 -65.0810266 54.51547137 -71.6875 43.125 C-75.11070171 34.8372485 -75.36788717 24.29690054 -72.3125 15.875 C-67.18541532 4.82085998 -57.93942413 -1.47366366 -46.875 -5.75 C-31.61517266 -9.34204617 -13.48562313 -8.21254254 0 0 Z " fill="#0A0A08" transform="translate(505.875,719.75)"/>
<path d="M0 0 C1.05896484 -0.01160156 2.11792969 -0.02320313 3.20898438 -0.03515625 C9.20264507 -0.01272209 13.94493224 0.10562816 19.0625 3.375 C23.75777367 9.576002 23.62786672 15.14118266 23.56420898 22.73266602 C23.56961197 23.96275391 23.57501495 25.1928418 23.58058167 26.46020508 C23.59091448 29.81788443 23.58340464 33.17457134 23.56687045 36.5321629 C23.55296803 40.0540739 23.5594858 43.57595656 23.56300354 47.09788513 C23.56570123 53.00992083 23.55226706 58.92175298 23.52905273 64.83374023 C23.50243332 71.65997225 23.50070137 78.48586436 23.5124411 85.31213051 C23.52323486 91.8918615 23.51702012 98.47147004 23.50288582 105.05119133 C23.49714107 107.84572191 23.49719671 110.64016244 23.50195122 113.43469429 C23.50762685 117.33883569 23.4883666 121.24263942 23.46655273 125.14672852 C23.47105438 126.30170334 23.47555603 127.45667816 23.48019409 128.64665222 C23.4279233 134.27621955 23.34083747 138.56119946 20.0625 143.375 C14.44213904 148.46845212 7.97715522 147.62650691 0.8125 147.6875 C-0.30769531 147.71650391 -1.42789062 147.74550781 -2.58203125 147.77539062 C-9.23097693 147.82641559 -13.693479 147.64816847 -18.9375 143.375 C-22.90387041 137.68156627 -22.3672858 131.70375504 -22.34155273 125.0390625 C-22.34841599 123.79936707 -22.35527924 122.55967163 -22.36235046 121.28240967 C-22.37748659 117.89385422 -22.37912083 114.50585021 -22.37340808 111.11730194 C-22.37031142 108.28427337 -22.37641384 105.4512943 -22.38244683 102.61827278 C-22.39647791 95.9336241 -22.39494214 89.24910326 -22.38354492 82.56445312 C-22.37205999 75.67628102 -22.38614856 68.78849811 -22.4129414 61.90037727 C-22.43511423 55.97746609 -22.44173239 50.05467695 -22.43586498 44.13172722 C-22.43249855 40.59807891 -22.43488946 37.06468016 -22.45211601 33.53106689 C-22.47048782 29.59086907 -22.45638167 25.65114839 -22.43920898 21.7109375 C-22.44887695 20.54504089 -22.45854492 19.37914429 -22.46850586 18.17791748 C-22.41162271 11.95065445 -22.19320757 8.07044742 -17.9375 3.375 C-12.5153311 -0.63452895 -6.46196186 -0.07053688 0 0 Z " fill="#0B0A08" transform="translate(283.9375,333.625)"/>
<path d="M0 0 C42.24 0 84.48 0 128 0 C128.33 7.92 128.66 15.84 129 24 C129.90378727 30.06290627 130.85758606 35.99611807 132 42 C132.33 44.31 132.66 46.62 133 49 C89.11 49 45.22 49 0 49 C0 32.83 0 16.66 0 0 Z " fill="#090808" transform="translate(383,383)"/>
<path d="M0 0 C25.41 0 50.82 0 77 0 C77 7.26 77 14.52 77 22 C59.84 22 42.68 22 25 22 C25 32.23 25 42.46 25 53 C40.51 53 56.02 53 72 53 C72 59.93 72 66.86 72 74 C56.49 74 40.98 74 25 74 C25 89.84 25 105.68 25 122 C16.75 122 8.5 122 0 122 C0 81.74 0 41.48 0 0 Z " fill="#090807" transform="translate(234,714)"/>
<path d="M0 0 C8.91 0 17.82 0 27 0 C30.50515611 10.19315513 34.00359276 20.3885545 37.49072266 30.58789062 C38.41028541 33.27738622 39.33190003 35.96613762 40.25537109 38.65429688 C41.25958798 41.58003128 42.25635289 44.50816274 43.25 47.4375 C43.68034546 48.68406372 43.68034546 48.68406372 44.11938477 49.95581055 C45.31803506 53.51533522 46 56.20420157 46 60 C46.66 60 47.32 60 48 60 C48.13946045 58.60019897 48.13946045 58.60019897 48.28173828 57.17211914 C49.02733086 51.99631949 50.79364682 47.17405469 52.4921875 42.24609375 C52.83879425 41.22701431 53.185401 40.20793488 53.54251099 39.15797424 C54.27422095 37.0112804 55.00897273 34.86562124 55.74658203 32.72094727 C56.87156857 29.44748472 57.98531979 26.17035793 59.09765625 22.89257812 C59.81183487 20.80185601 60.52665706 18.7113536 61.2421875 16.62109375 C61.57354706 15.64595322 61.90490662 14.67081268 62.24630737 13.66612244 C62.56318512 12.74819412 62.88006287 11.83026581 63.20654297 10.88452148 C63.61838333 9.68375221 63.61838333 9.68375221 64.0385437 8.45872498 C65.17242116 5.55906865 66.60761464 2.78477071 68 0 C75.92 0 83.84 0 92 0 C88.6249172 11.25027598 88.6249172 11.25027598 87.18164062 15.08129883 C86.69408043 16.38281136 86.69408043 16.38281136 86.19667053 17.71061707 C85.85333176 18.61693375 85.50999298 19.52325043 85.15625 20.45703125 C84.79063461 21.43017776 84.42501923 22.40332428 84.04832458 23.40596008 C82.86885645 26.54272994 81.68461268 29.67766978 80.5 32.8125 C79.68150239 34.98478054 78.86322569 37.15714434 78.04516602 39.32958984 C76.43201262 43.61159727 74.81676978 47.89280728 73.19970703 52.17333984 C71.35493464 57.0573053 69.51767681 61.94404432 67.68359375 66.83203125 C65.15386639 73.56686599 62.59530048 80.29014679 60 87 C59.59458984 88.04833008 59.18917969 89.09666016 58.77148438 90.17675781 C57.59101104 93.20701593 56.39321587 96.22970856 55.1875 99.25 C54.85032959 100.11383301 54.51315918 100.97766602 54.16577148 101.86767578 C50.24541768 111.53474837 45.55173051 119.26426807 36 124 C28.00138244 127.26570776 18.418959 126.13258203 10 126 C10 119.4 10 112.8 10 106 C13.48307292 105.83723958 16.96614583 105.67447917 20.44921875 105.51171875 C24.9457926 104.86369766 27.61142206 103.61950542 30.57519531 100.1628418 C33.13906245 96.27091258 33.32711393 92.59002693 33 88 C31.61261727 82.8249026 29.59904346 77.94343272 27.5625 73 C26.97751749 71.53398845 26.39497563 70.067001 25.81469727 68.59912109 C24.56183504 65.43360268 23.29961849 62.27203162 22.03222656 59.11230469 C18.75598171 50.90915438 15.62907601 42.64822661 12.49069214 34.39160156 C11.45894811 31.68134146 10.42164912 28.97326705 9.38305664 26.265625 C8.73310761 24.56515311 8.08328104 22.86463441 7.43359375 21.1640625 C7.00142044 20.04072006 7.00142044 20.04072006 6.56051636 18.89468384 C4.17971115 12.64208932 2.1222213 6.3666639 0 0 Z " fill="#0A0907" transform="translate(530,748)"/>
<path d="M0 0 C8.80693376 6.34775505 12.94680963 13.41462974 15 24 C15.3783579 28.88527983 15.35132775 33.73925021 15.29296875 38.63671875 C15.28735827 40.01104769 15.28309506 41.38538271 15.28010559 42.75971985 C15.26877077 46.33870655 15.23940512 49.91731521 15.20599365 53.49615479 C15.17504428 57.16340016 15.1615477 60.83070793 15.14648438 64.49804688 C15.11452139 71.6655551 15.06185017 78.83267595 15 86 C7.08 86 -0.84 86 -9 86 C-9.03738281 82.1225 -9.07476563 78.245 -9.11328125 74.25 C-9.159538 70.48024974 -9.21075676 66.71059713 -9.26245117 62.94091797 C-9.29563439 60.32802298 -9.32368671 57.71505745 -9.34643555 55.10205078 C-9.38010208 51.33856239 -9.43242649 47.57571661 -9.48828125 43.8125 C-9.49467117 42.65073242 -9.5010611 41.48896484 -9.50764465 40.29199219 C-9.64068784 32.89491258 -9.867646 26.132354 -15.375 20.625 C-20.3616346 17.53803572 -24.06343784 16.38587288 -30 17 C-34.22461915 18.68637061 -37.79664493 20.94118802 -40 25 C-42.36683144 31.44732822 -42.34528979 37.67875129 -42.4140625 44.49609375 C-42.43342865 45.68477554 -42.4527948 46.87345734 -42.4727478 48.09815979 C-42.53231089 51.8778679 -42.5788363 55.65760684 -42.625 59.4375 C-42.66320114 62.00717441 -42.70225411 64.5768363 -42.7421875 67.14648438 C-42.83958919 73.43092281 -42.91934446 79.71523524 -43 86 C-50.92 86 -58.84 86 -67 86 C-67 56.96 -67 27.92 -67 -2 C-59.41 -2 -51.82 -2 -44 -2 C-43.67 0.64 -43.34 3.28 -43 6 C-42.5153125 5.52949219 -42.030625 5.05898438 -41.53125 4.57421875 C-30.58678037 -5.59150977 -13.17105155 -8.18092637 0 0 Z " fill="#090908" transform="translate(696,750)"/>
<path d="M0 0 C0.79277344 0.42410156 1.58554687 0.84820313 2.40234375 1.28515625 C11.41215826 6.66705876 17.19814322 14.92375729 20 25 C20 26.32 20 27.64 20 29 C16.10517784 29.23282073 12.21214146 29.37456639 8.3125 29.5 C7.20970703 29.56703125 6.10691406 29.6340625 4.97070312 29.703125 C1.79460741 29.77988864 -0.91210395 29.75968211 -4 29 C-5.95825419 27.09287934 -6.96766503 25.40353424 -8.08886719 22.92163086 C-9.68804026 19.548884 -12.49065251 18.57251112 -15.8125 17.3125 C-21.93082309 16.43845384 -26.66106468 16.51460677 -32.109375 19.5390625 C-37.58547416 23.77059367 -40.80271126 30.29518304 -42 37 C-42.83433473 45.08546198 -41.01541972 52.24714949 -37.1875 59.375 C-33.68444338 63.57866794 -29.55748943 66.57197859 -24.01953125 67.23828125 C-18.38884541 67.42763175 -13.40422738 66.7629266 -9 63 C-7.68 60.69 -6.36 58.38 -5 56 C3.25 56 11.5 56 20 56 C16.66242014 67.12526621 12.71144561 76.2370483 2.609375 82.4765625 C-9.37160278 88.76106311 -23.19123611 89.96622146 -36.4296875 87.3125 C-39.11541547 86.39950466 -41.50639287 85.34789575 -44 84 C-44.78375 83.5875 -45.5675 83.175 -46.375 82.75 C-55.76721601 77.16543913 -61.99144476 68.41910183 -65 58 C-68.67333308 43.0955566 -67.57765645 28.84771769 -60.0390625 15.26953125 C-54.17784012 5.87136432 -45.81482965 -0.38781453 -35.13232422 -3.5534668 C-24.16209366 -5.85075918 -9.84970919 -5.49870722 0 0 Z " fill="#0A0907" transform="translate(788,750)"/>
<path d="M0 0 C7.92 0 15.84 0 24 0 C24 7.92 24 15.84 24 24 C30.27 24 36.54 24 43 24 C43 30.27 43 36.54 43 43 C36.73 43 30.46 43 24 43 C24.06883475 49.3358391 24.15678189 55.67101561 24.26245117 62.00634766 C24.2957054 64.16154636 24.32373577 66.31683226 24.34643555 68.47216797 C24.379972 71.57036497 24.43228803 74.66776255 24.48828125 77.765625 C24.49467117 78.72929993 24.5010611 79.69297485 24.50764465 80.68585205 C24.53733589 82.03679962 24.53733589 82.03679962 24.56762695 83.41503906 C24.58428154 84.60084564 24.58428154 84.60084564 24.60127258 85.81060791 C25.10497012 88.5763856 26.09095599 89.9582083 28 92 C31.56045177 93.18681726 34.43808337 93.09689832 38.1875 93.0625 C39.45980469 93.05347656 40.73210937 93.04445313 42.04296875 93.03515625 C43.01878906 93.02355469 43.99460937 93.01195312 45 93 C45.02888514 96.14581423 45.04675923 99.29159469 45.0625 102.4375 C45.07087891 103.33533203 45.07925781 104.23316406 45.08789062 105.15820312 C45.09111328 106.01220703 45.09433594 106.86621094 45.09765625 107.74609375 C45.10289307 108.53685303 45.10812988 109.3276123 45.11352539 110.14233398 C45 112 45 112 44 113 C32.82037545 114.89842681 19.55865515 115.98330416 9.70703125 109.48828125 C3.31490027 104.30704576 1.02957599 99.14399751 0 91 C-0.13202094 87.30407535 -0.11638661 83.61192945 -0.09765625 79.9140625 C-0.0962413 78.85714203 -0.09482635 77.80022156 -0.09336853 76.71127319 C-0.0877894 73.34915284 -0.07524069 69.98710009 -0.0625 66.625 C-0.05748231 64.33984471 -0.05291987 62.05468838 -0.04882812 59.76953125 C-0.03782679 54.17966162 -0.02057649 48.58984225 0 43 C-4.62 43 -9.24 43 -14 43 C-14 36.73 -14 30.46 -14 24 C-9.38 24 -4.76 24 0 24 C0 16.08 0 8.16 0 0 Z " fill="#0A0908" transform="translate(376,724)"/>
<path d="M0 0 C13.00071792 1.98590007 24.98630469 9.54300273 33.3515625 19.61328125 C40.42964002 30.04334475 45.55187114 41.29647429 45.57421875 54.0234375 C45.59871094 54.76916016 45.62320313 55.51488281 45.6484375 56.28320312 C45.66690769 59.73405111 45.4582535 61.94001945 43.55078125 64.85546875 C40.38443234 66.84890104 38.91429592 66.87168149 35.19921875 66.3359375 C32.14092117 65.33213595 29.24481658 64.05927865 26.32421875 62.7109375 C25.51992432 62.34339355 24.71562988 61.97584961 23.88696289 61.59716797 C18.46798524 59.06142453 13.52624053 56.53540535 9.19921875 52.3359375 C8.08353516 51.26085937 8.08353516 51.26085937 6.9453125 50.1640625 C-3.89228333 38.95152513 -7.87655215 27.16254182 -8.11328125 11.9609375 C-8.13116699 11.16284668 -8.14905273 10.36475586 -8.16748047 9.54248047 C-8.15891158 3.79520619 -8.15891158 3.79520619 -6.46166992 1.61865234 C-4.33808153 -0.02140843 -2.64291591 -0.14405831 0 0 Z " fill="#0A0908" transform="translate(582.80078125,253.6640625)"/>
<path d="M0 0 C7.92 0 15.84 0 24 0 C24 29.04 24 58.08 24 88 C16.08 88 8.16 88 0 88 C0 58.96 0 29.92 0 0 Z " fill="#0A0A07" transform="translate(325,748)"/>
<path d="M0 0 C0 21.12 0 42.24 0 64 C-14 64 -14 64 -18 62 C-20.18955018 58.71567473 -20.26223436 57.69129126 -20.30639648 53.87353516 C-20.33037758 52.30643295 -20.33037758 52.30643295 -20.35484314 50.70767212 C-20.36020584 49.57953094 -20.36556854 48.45138977 -20.37109375 47.2890625 C-20.38012222 46.12877533 -20.3891507 44.96848816 -20.39845276 43.77304077 C-20.41297007 41.31681912 -20.42184565 38.86055866 -20.42553711 36.40429688 C-20.43743203 32.64647243 -20.48660564 28.89029019 -20.53710938 25.1328125 C-20.54657345 22.74740386 -20.55380856 20.36198512 -20.55859375 17.9765625 C-20.57812607 16.85246979 -20.59765839 15.72837708 -20.61778259 14.57022095 C-20.572602 6.75701106 -20.572602 6.75701106 -17.59008789 2.81396484 C-10.99069751 -1.80791003 -11.39783525 0 0 0 Z " fill="#0A0908" transform="translate(253,376)"/>
<path d="M0 0 C3.97633758 2.06803181 6.48266186 4.07257033 8.03515625 8.2734375 C8.70759954 13.29154555 8.59096092 17.09769686 6.41015625 21.7109375 C2.8142069 25.59077759 -0.16399364 27.0442384 -5.40234375 27.7109375 C-10.73379347 27.05619806 -14.21397121 25.19374931 -17.90234375 21.1484375 C-19.50171117 16.82073744 -19.62171775 12.82776391 -18.96484375 8.2734375 C-15.1368307 0.47563314 -8.44277615 -3.12198084 0 0 Z " fill="#0A0907" transform="translate(342.96484375,709.7265625)"/>
<path d="M0 0 C7.59 0 15.18 0 23 0 C23 2.64 23 5.28 23 8 C22.01 8.495 22.01 8.495 21 9 C21.33 6.36 21.66 3.72 22 1 C15.73 1 9.46 1 3 1 C3 29.05 3 57.1 3 86 C9.27 86 15.54 86 22 86 C22 68.18 22 50.36 22 32 C22.66 32.33 23.32 32.66 24 33 C24 51.15 24 69.3 24 88 C16.08 88 8.16 88 0 88 C0 58.96 0 29.92 0 0 Z " fill="#171508" transform="translate(629,748)"/>
<path d="M0 0 C42.24 0 84.48 0 128 0 C128 8.91 128 17.82 128 27 C127.67 27 127.34 27 127 27 C126 20 126 20 126 2 C85.08 2 44.16 2 2 2 C2.33 17.18 2.66 32.36 3 48 C1.515 48.495 1.515 48.495 0 49 C0 32.83 0 16.66 0 0 Z " fill="#1B1906" transform="translate(383,383)"/>
<path d="M0 0 C4.29 0 8.58 0 13 0 C13 21.12 13 42.24 13 64 C10.69 64 8.38 64 6 64 C6.33 63.34 6.66 62.68 7 62 C8.32 62.33 9.64 62.66 11 63 C11 42.87 11 22.74 11 2 C7.04 2 3.08 2 -1 2 C-0.67 1.34 -0.34 0.68 0 0 Z " fill="#312A0B" transform="translate(240,376)"/>
<path d="M0 0 C0.33 0.66 0.66 1.32 1 2 C0.17455193 4.07112424 -0.73849364 6.1074998 -1.6875 8.125 C-5.19780651 15.84849401 -7.17632158 23.73980949 -9 32 C-9.33 32 -9.66 32 -10 32 C-9.95875 30.96875 -9.9175 29.9375 -9.875 28.875 C-9.783977 25.12376855 -9.783977 25.12376855 -11.03125 22.3125 C-12.27249406 18.0682461 -11.9947626 14.48819869 -11.625 10.125 C-11.56828125 9.34125 -11.5115625 8.5575 -11.453125 7.75 C-11.31282139 5.83251738 -11.15789804 3.91611401 -11 2 C-10.67 2 -10.34 2 -10 2 C-9.67 3.65 -9.34 5.3 -9 7 C-8.01 6.67 -7.02 6.34 -6 6 C-5.01 6.33 -4.02 6.66 -3 7 C-2.690625 6.030625 -2.38125 5.06125 -2.0625 4.0625 C-1 1 -1 1 0 0 Z " fill="#FAE924" transform="translate(639,297)"/>
<path d="M0 0 C1.32 0 2.64 0 4 0 C4.02888514 3.14581423 4.04675923 6.29159469 4.0625 9.4375 C4.07087891 10.33533203 4.07925781 11.23316406 4.08789062 12.15820312 C4.09111328 13.01220703 4.09433594 13.86621094 4.09765625 14.74609375 C4.10289307 15.53685303 4.10812988 16.3276123 4.11352539 17.14233398 C4 19 4 19 3 20 C0.66702567 20.04092937 -1.66705225 20.04241723 -4 20 C-3.505 18.515 -3.505 18.515 -3 17 C-1.68 17 -0.36 17 1 17 C0.67 11.39 0.34 5.78 0 0 Z " fill="#2E270A" transform="translate(417,817)"/>
<path d="M0 0 C0.33 0 0.66 0 1 0 C1 9.24 1 18.48 1 28 C-1.64822012 29.32411006 -3.48938194 29.01892401 -6.4453125 28.87890625 C-7.52167969 28.83056641 -8.59804688 28.78222656 -9.70703125 28.73242188 C-10.83496094 28.67634766 -11.96289062 28.62027344 -13.125 28.5625 C-14.26066406 28.51029297 -15.39632813 28.45808594 -16.56640625 28.40429688 C-19.37786631 28.27435544 -22.18899465 28.13938086 -25 28 C-25 27.67 -25 27.34 -25 27 C-17.08 26.67 -9.16 26.34 -1 26 C-0.67 17.42 -0.34 8.84 0 0 Z " fill="#DBC71E" transform="translate(350,809)"/>
<path d="M0 0 C7.59 0 15.18 0 23 0 C23.33 0.99 23.66 1.98 24 3 C16.08 3 8.16 3 0 3 C0 2.01 0 1.02 0 0 Z " fill="#362E0A" transform="translate(784,776)"/>
<path d="M0 0 C0.99 0 1.98 0 3 0 C3.48586118 6.31619537 3.48586118 6.31619537 1.3125 9.375 C-2.37723851 11.96778922 -4.8771211 12.14830476 -9.3125 11.5625 C-10.199375 11.376875 -11.08625 11.19125 -12 11 C-11.67 10.01 -11.34 9.02 -11 8 C-10.01 8 -9.02 8 -8 8 C-8 8.66 -8 9.32 -8 10 C-7.34 9.67 -6.68 9.34 -6 9 C-4.00039988 8.960008 -1.99952758 8.95653201 0 9 C0 6.03 0 3.06 0 0 Z " fill="#151108" transform="translate(728,242)"/>
<path d="M0 0 C0.33 0.99 0.66 1.98 1 3 C-4.06959729 7.24750043 -7.31665218 8.55694565 -14 8 C-17.25879573 6.64109506 -20.36621628 5.26756743 -22 2 C-19.03824877 2.61277612 -17.61941217 3.25372522 -15 5 C-10.18813287 5.61274712 -5.24800579 5.52225344 -1 3 C-0.67 2.01 -0.34 1.02 0 0 Z " fill="#1C1809" transform="translate(348,729)"/>
<path d="M0 0 C0.33 0 0.66 0 1 0 C1.33923576 2.35344806 1.67150534 4.7075484 2 7.0625 C2.09539063 7.71927734 2.19078125 8.37605469 2.2890625 9.05273438 C2.88887674 13.40138763 3.09127093 17.61329071 3 22 C2.01 21.67 1.02 21.34 0 21 C0 14.07 0 7.14 0 0 Z " fill="#151308" transform="translate(522,384)"/>
<path d="M0 0 C0.33 0.99 0.66 1.98 1 3 C-4.94 3 -10.88 3 -17 3 C-17 2.34 -17 1.68 -17 1 C-14.72926348 0.83201949 -12.45840707 0.66565887 -10.1875 0.5 C-8.29064453 0.36078125 -8.29064453 0.36078125 -6.35546875 0.21875 C-4.24021483 0.08085219 -2.11974408 0 0 0 Z " fill="#E6D923" transform="translate(778,837)"/>
<path d="M0 0 C0 0.66 0 1.32 0 2 C-2.97 2 -5.94 2 -9 2 C-9 2.66 -9 3.32 -9 4 C-11.64 4.66 -14.28 5.32 -17 6 C-11.79516879 0.21685421 -7.44167705 -0.25226024 0 0 Z " fill="#EADD23" transform="translate(770,766)"/>
<path d="M0 0 C0.33 0 0.66 0 1 0 C1.50604924 2.39469729 2.00499517 4.79051717 2.5 7.1875 C2.64308594 7.86103516 2.78617188 8.53457031 2.93359375 9.22851562 C3.68069842 12.87509793 4.17352282 16.27648957 4 20 C3.34 20.33 2.68 20.66 2 21 C0.79556805 13.94546999 -0.28100502 7.16562789 0 0 Z " fill="#1A1608" transform="translate(718,183)"/>
<path d="M0 0 C4.96768758 1.55240237 9.17867057 4.51054781 13 8 C13 8.66 13 9.32 13 10 C13.99 10.33 14.98 10.66 16 11 C15.34 11.66 14.68 12.32 14 13 C13.7525 12.38125 13.505 11.7625 13.25 11.125 C11.73981948 8.55769311 10.64079548 8.27795638 8 7 C6.5614044 6.01030923 5.14443831 4.98849332 3.75 3.9375 C3.04359375 3.41027344 2.3371875 2.88304687 1.609375 2.33984375 C1.07828125 1.89769531 0.5471875 1.45554687 0 1 C0 0.67 0 0.34 0 0 Z " fill="#E5DB22" transform="translate(711,335)"/>
<path d="M0 0 C-1.80613708 2.32042696 -2.66252959 2.9533659 -5.62890625 3.36328125 C-6.59699219 3.34652344 -7.56507813 3.32976562 -8.5625 3.3125 C-9.53316406 3.30863281 -10.50382812 3.30476562 -11.50390625 3.30078125 C-14 3 -14 3 -16 1 C-10.62915894 0.31798844 -5.41499441 -0.11521265 0 0 Z " fill="#171307" transform="translate(487,126)"/>
<path d="M0 0 C-0.33 0.99 -0.66 1.98 -1 3 C-7.625 4.25 -7.625 4.25 -11 2 C-7.12315913 0.80712589 -4.08378077 0 0 0 Z " fill="#161307" transform="translate(759,746)"/>
<path d="M0 0 C4.29 0.66 8.58 1.32 13 2 C9.02033543 3.98983228 8.32324868 4.22400716 4.25 3.625 C3.45078125 3.51414062 2.6515625 3.40328125 1.828125 3.2890625 C1.22484375 3.19367187 0.6215625 3.09828125 0 3 C0 2.01 0 1.02 0 0 Z " fill="#F0E524" transform="translate(458,836)"/>
<path d="M0 0 C0.33 0 0.66 0 1 0 C1.02705729 1.77074917 1.04642195 3.54161711 1.0625 5.3125 C1.07410156 6.29863281 1.08570313 7.28476562 1.09765625 8.30078125 C1 11 1 11 0 14 C-0.66 14 -1.32 14 -2 14 C-1.85866501 12.22880197 -1.71176792 10.45804713 -1.5625 8.6875 C-1.48128906 7.70136719 -1.40007813 6.71523438 -1.31640625 5.69921875 C-1 3 -1 3 0 0 Z " fill="#F7EE27" transform="translate(741,410)"/>
<path d="M0 0 C2 3 2 3 1.75 5.0625 C1 7 1 7 -1 9 C-1.66 8.34 -2.32 7.68 -3 7 C-2.01 4.69 -1.02 2.38 0 0 Z " fill="#E8D521" transform="translate(806,811)"/>
<path d="M0 0 C0.66 0.66 1.32 1.32 2 2 C0.68 4.64 -0.64 7.28 -2 10 C-2.66 10 -3.32 10 -4 10 C-4 8.68 -4 7.36 -4 6 C-3.34 6 -2.68 6 -2 6 C-1.34 4.02 -0.68 2.04 0 0 Z " fill="#1B1809" transform="translate(760,517)"/>
<path d="M0 0 C0.66 0 1.32 0 2 0 C1.34 2.31 0.68 4.62 0 7 C0.99 7.33 1.98 7.66 3 8 C1.35 8.66 -0.3 9.32 -2 10 C-1.54177532 6.53058454 -1.10868317 3.32604951 0 0 Z " fill="#E6DD24" transform="translate(645,326)"/>
<path d="M0 0 C0.66 1.32 1.32 2.64 2 4 C2.99 4 3.98 4 5 4 C2.03 6.475 2.03 6.475 -1 9 C-0.67 6.03 -0.34 3.06 0 0 Z " fill="#FAF327" transform="translate(653,748)"/>
<path d="M0 0 C0 3.97054597 -1.3139381 5.16471244 -4 8 C-6.140625 8.6484375 -6.140625 8.6484375 -8 9 C-7.04270084 7.87411986 -6.08412105 6.7493285 -5.125 5.625 C-4.59132813 4.99851563 -4.05765625 4.37203125 -3.5078125 3.7265625 C-2.38567993 2.44163349 -1.20628025 1.20628025 0 0 Z " fill="#191607" transform="translate(319,198)"/>
<path d="M0 0 C2.64 0.33 5.28 0.66 8 1 C7.67 1.99 7.34 2.98 7 4 C4.69 3.67 2.38 3.34 0 3 C0 2.01 0 1.02 0 0 Z " fill="#F0DB22" transform="translate(580,130)"/>
<path d="M0 0 C0.93423645 3.01031744 1.04449911 3.86650268 0 7 C-0.66 7 -1.32 7 -2 7 C-2.33 7.99 -2.66 8.98 -3 10 C-3.33 9.34 -3.66 8.68 -4 8 C-3.22265625 6.0546875 -3.22265625 6.0546875 -2.0625 3.875 C-1.49208984 2.78832031 -1.49208984 2.78832031 -0.91015625 1.6796875 C-0.60980469 1.12539063 -0.30945313 0.57109375 0 0 Z " fill="#1C1809" transform="translate(265,270)"/>
<path d="M0 0 C0.33 0.66 0.66 1.32 1 2 C-2.625 6.875 -2.625 6.875 -6 8 C-4.55746343 4.63408134 -2.66735273 2.48952921 0 0 Z " fill="#1E1A08" transform="translate(310,207)"/>
</svg>
